<mxfile host="65bd71144e">
    <diagram id="VetKzjbRoYOWJcP3zysH" name="Page-1">
        <mxGraphModel dx="2233" dy="1948" grid="1" gridSize="10" guides="1" tooltips="1" connect="1" arrows="1" fold="1" page="1" pageScale="1" pageWidth="850" pageHeight="1100" math="0" shadow="0">
            <root>
                <mxCell id="0"/>
                <mxCell id="1" parent="0"/>
                <mxCell id="2" value="" style="endArrow=none;html=1;" parent="1" edge="1">
                    <mxGeometry width="50" height="50" relative="1" as="geometry">
                        <mxPoint x="324.17" y="-130" as="sourcePoint"/>
                        <mxPoint x="924.17" y="-130" as="targetPoint"/>
                    </mxGeometry>
                </mxCell>
                <mxCell id="3" value="" style="endArrow=none;html=1;" parent="1" edge="1">
                    <mxGeometry width="50" height="50" relative="1" as="geometry">
                        <mxPoint x="324.17" y="300" as="sourcePoint"/>
                        <mxPoint x="324.17" y="-130" as="targetPoint"/>
                    </mxGeometry>
                </mxCell>
                <mxCell id="4" value="" style="endArrow=none;html=1;" parent="1" edge="1">
                    <mxGeometry width="50" height="50" relative="1" as="geometry">
                        <mxPoint x="924.17" y="300" as="sourcePoint"/>
                        <mxPoint x="924.17" y="-130" as="targetPoint"/>
                    </mxGeometry>
                </mxCell>
                <mxCell id="5" value="" style="endArrow=none;html=1;" parent="1" edge="1">
                    <mxGeometry width="50" height="50" relative="1" as="geometry">
                        <mxPoint x="324.17" y="300" as="sourcePoint"/>
                        <mxPoint x="924.17" y="300" as="targetPoint"/>
                    </mxGeometry>
                </mxCell>
                <mxCell id="7" value="" style="endArrow=none;html=1;" parent="1" edge="1">
                    <mxGeometry width="50" height="50" relative="1" as="geometry">
                        <mxPoint x="324.17" y="269.30999999999995" as="sourcePoint"/>
                        <mxPoint x="924.17" y="269.30999999999995" as="targetPoint"/>
                    </mxGeometry>
                </mxCell>
                <mxCell id="8" value="A - 0" style="text;html=1;align=center;verticalAlign=middle;whiteSpace=wrap;rounded=0;" parent="1" vertex="1">
                    <mxGeometry x="334.17" y="270" width="60" height="30" as="geometry"/>
                </mxCell>
                <mxCell id="9" value="" style="endArrow=none;html=1;" parent="1" edge="1">
                    <mxGeometry width="50" height="50" relative="1" as="geometry">
                        <mxPoint x="404.17" y="300" as="sourcePoint"/>
                        <mxPoint x="404.17" y="270" as="targetPoint"/>
                    </mxGeometry>
                </mxCell>
                <mxCell id="10" value="Обработать клиента и заключить туристический договор&amp;nbsp;" style="rounded=0;whiteSpace=wrap;html=1;" parent="1" vertex="1">
                    <mxGeometry x="504.17" y="-60" width="250" height="120" as="geometry"/>
                </mxCell>
                <mxCell id="11" value="Организация бизнес процесса работы с клиентами турфирмы" style="text;html=1;align=center;verticalAlign=middle;whiteSpace=wrap;rounded=0;" parent="1" vertex="1">
                    <mxGeometry x="454.17" y="270" width="360" height="30" as="geometry"/>
                </mxCell>
                <mxCell id="12" value="" style="endArrow=classic;html=1;entryX=0;entryY=0.417;entryDx=0;entryDy=0;entryPerimeter=0;" parent="1" edge="1">
                    <mxGeometry width="50" height="50" relative="1" as="geometry">
                        <mxPoint x="439.17" y="15" as="sourcePoint"/>
                        <mxPoint x="499.17" y="15.039999999999964" as="targetPoint"/>
                        <Array as="points">
                            <mxPoint x="439.17" y="15"/>
                        </Array>
                    </mxGeometry>
                </mxCell>
                <mxCell id="13" value="" style="endArrow=classic;html=1;exitX=1.004;exitY=0.387;exitDx=0;exitDy=0;exitPerimeter=0;" parent="1" edge="1">
                    <mxGeometry width="50" height="50" relative="1" as="geometry">
                        <mxPoint x="754.17" y="0.0999999999999659" as="sourcePoint"/>
                        <mxPoint x="814.17" as="targetPoint"/>
                    </mxGeometry>
                </mxCell>
                <mxCell id="15" value="А0" style="text;html=1;align=center;verticalAlign=middle;whiteSpace=wrap;rounded=0;" parent="1" vertex="1">
                    <mxGeometry x="694.17" y="30" width="60" height="30" as="geometry"/>
                </mxCell>
                <mxCell id="16" value="Заявка клиента" style="text;html=1;align=center;verticalAlign=middle;whiteSpace=wrap;rounded=0;" parent="1" vertex="1">
                    <mxGeometry x="334.17" width="100" height="30" as="geometry"/>
                </mxCell>
                <mxCell id="18" value="Обработанная анкета обратной связи" style="text;html=1;align=center;verticalAlign=middle;whiteSpace=wrap;rounded=0;" parent="1" vertex="1">
                    <mxGeometry x="814.17" y="-15" width="90" height="30" as="geometry"/>
                </mxCell>
                <mxCell id="21" value="" style="endArrow=classic;html=1;entryX=0.695;entryY=1.01;entryDx=0;entryDy=0;entryPerimeter=0;" parent="1" edge="1">
                    <mxGeometry width="50" height="50" relative="1" as="geometry">
                        <mxPoint x="719.13" y="108.80000000000001" as="sourcePoint"/>
                        <mxPoint x="718.88" y="59.99999999999994" as="targetPoint"/>
                    </mxGeometry>
                </mxCell>
                <mxCell id="22" value="База данных клиентов" style="text;html=1;align=center;verticalAlign=middle;whiteSpace=wrap;rounded=0;" parent="1" vertex="1">
                    <mxGeometry x="659.17" y="110" width="110" height="30" as="geometry"/>
                </mxCell>
                <mxCell id="23" value="&lt;b&gt;Цель&lt;/b&gt;:&amp;nbsp; Организовать эффективный процесс работы с клиентом турфирмы" style="text;html=1;align=center;verticalAlign=middle;whiteSpace=wrap;rounded=0;" parent="1" vertex="1">
                    <mxGeometry x="334.17" y="190" width="430" height="30" as="geometry"/>
                </mxCell>
                <mxCell id="24" value="&lt;b&gt;Точка зрения&lt;/b&gt;: Управляющий состав турфирмы" style="text;html=1;align=center;verticalAlign=middle;whiteSpace=wrap;rounded=0;" parent="1" vertex="1">
                    <mxGeometry x="334.17" y="220" width="270" height="30" as="geometry"/>
                </mxCell>
                <mxCell id="25" value="" style="endArrow=none;html=1;" parent="1" edge="1">
                    <mxGeometry width="50" height="50" relative="1" as="geometry">
                        <mxPoint x="843.75" y="300" as="sourcePoint"/>
                        <mxPoint x="843.75" y="270" as="targetPoint"/>
                    </mxGeometry>
                </mxCell>
                <mxCell id="30" value="" style="endArrow=classic;html=1;" parent="1" edge="1">
                    <mxGeometry width="50" height="50" relative="1" as="geometry">
                        <mxPoint x="628.67" y="110" as="sourcePoint"/>
                        <mxPoint x="628.67" y="60" as="targetPoint"/>
                    </mxGeometry>
                </mxCell>
                <mxCell id="31" value="Сотрудник турфирмы" style="text;html=1;align=center;verticalAlign=middle;whiteSpace=wrap;rounded=0;" parent="1" vertex="1">
                    <mxGeometry x="599.17" y="110" width="60" height="30" as="geometry"/>
                </mxCell>
                <mxCell id="34" value="" style="endArrow=classic;html=1;entryX=0.5;entryY=0;entryDx=0;entryDy=0;" parent="1" edge="1">
                    <mxGeometry width="50" height="50" relative="1" as="geometry">
                        <mxPoint x="714.17" y="-90" as="sourcePoint"/>
                        <mxPoint x="714.17" y="-60" as="targetPoint"/>
                    </mxGeometry>
                </mxCell>
                <mxCell id="35" value="ГК РФ" style="text;html=1;align=center;verticalAlign=middle;whiteSpace=wrap;rounded=0;" parent="1" vertex="1">
                    <mxGeometry x="639.17" y="-120" width="150" height="30" as="geometry"/>
                </mxCell>
                <mxCell id="58" value="Клиент" style="text;html=1;align=center;verticalAlign=middle;whiteSpace=wrap;rounded=0;" parent="1" vertex="1">
                    <mxGeometry x="519.1700000000001" y="110" width="60" height="30" as="geometry"/>
                </mxCell>
                <mxCell id="60" value="" style="endArrow=classic;html=1;" parent="1" edge="1">
                    <mxGeometry width="50" height="50" relative="1" as="geometry">
                        <mxPoint x="548.1700000000001" y="110" as="sourcePoint"/>
                        <mxPoint x="548.48" y="60" as="targetPoint"/>
                    </mxGeometry>
                </mxCell>
                <mxCell id="126" value="Анкета обратной связи" style="text;html=1;align=center;verticalAlign=middle;whiteSpace=wrap;rounded=0;" parent="1" vertex="1">
                    <mxGeometry x="534.1700000000001" y="-120" width="95" height="30" as="geometry"/>
                </mxCell>
                <mxCell id="127" value="" style="endArrow=classic;html=1;exitX=0.5;exitY=1;exitDx=0;exitDy=0;entryX=0.31;entryY=-0.004;entryDx=0;entryDy=0;entryPerimeter=0;" parent="1" source="126" target="10" edge="1">
                    <mxGeometry width="50" height="50" relative="1" as="geometry">
                        <mxPoint x="568.87" y="-80" as="sourcePoint"/>
                        <mxPoint x="574.17" y="-62" as="targetPoint"/>
                    </mxGeometry>
                </mxCell>
                <mxCell id="132" value="Подобрать тур" style="rounded=0;whiteSpace=wrap;html=1;" parent="1" vertex="1">
                    <mxGeometry x="-43.33" y="460" width="120" height="60" as="geometry"/>
                </mxCell>
                <mxCell id="133" value="" style="endArrow=classic;html=1;" parent="1" edge="1">
                    <mxGeometry width="50" height="50" relative="1" as="geometry">
                        <mxPoint x="-103.33" y="465" as="sourcePoint"/>
                        <mxPoint x="-43.33" y="464.5" as="targetPoint"/>
                    </mxGeometry>
                </mxCell>
                <mxCell id="134" value="Пожелания клиента" style="text;html=1;align=center;verticalAlign=middle;whiteSpace=wrap;rounded=0;" parent="1" vertex="1">
                    <mxGeometry x="-183.32999999999998" y="450" width="60" height="30" as="geometry"/>
                </mxCell>
                <mxCell id="136" value="" style="endArrow=classic;html=1;entryX=0.25;entryY=1;entryDx=0;entryDy=0;" parent="1" edge="1">
                    <mxGeometry width="50" height="50" relative="1" as="geometry">
                        <mxPoint x="40.1" y="1140" as="sourcePoint"/>
                        <mxPoint x="40.00000000000001" y="520" as="targetPoint"/>
                    </mxGeometry>
                </mxCell>
                <mxCell id="137" value="Инструменты взаимодействия" style="text;html=1;align=center;verticalAlign=middle;whiteSpace=wrap;rounded=0;" parent="1" vertex="1">
                    <mxGeometry x="26.67" y="1150" width="60" height="30" as="geometry"/>
                </mxCell>
                <mxCell id="138" value="" style="endArrow=classic;html=1;" parent="1" edge="1">
                    <mxGeometry width="50" height="50" relative="1" as="geometry">
                        <mxPoint x="16.67" y="400" as="sourcePoint"/>
                        <mxPoint x="16.67" y="460" as="targetPoint"/>
                    </mxGeometry>
                </mxCell>
                <mxCell id="139" value="Регламент подбора тура" style="text;html=1;align=center;verticalAlign=middle;whiteSpace=wrap;rounded=0;" parent="1" vertex="1">
                    <mxGeometry x="-33.33" y="360" width="100" height="30" as="geometry"/>
                </mxCell>
                <mxCell id="140" value="" style="endArrow=classic;html=1;" parent="1" edge="1">
                    <mxGeometry width="50" height="50" relative="1" as="geometry">
                        <mxPoint x="-103.33" y="510" as="sourcePoint"/>
                        <mxPoint x="-43.33" y="509.5" as="targetPoint"/>
                        <Array as="points"/>
                    </mxGeometry>
                </mxCell>
                <mxCell id="141" value="База данных туров" style="text;html=1;align=center;verticalAlign=middle;whiteSpace=wrap;rounded=0;" parent="1" vertex="1">
                    <mxGeometry x="-203.32999999999998" y="490" width="100" height="40" as="geometry"/>
                </mxCell>
                <mxCell id="144" value="" style="endArrow=classic;html=1;exitX=1;exitY=0.5;exitDx=0;exitDy=0;entryX=0;entryY=0.25;entryDx=0;entryDy=0;" parent="1" source="132" target="146" edge="1">
                    <mxGeometry width="50" height="50" relative="1" as="geometry">
                        <mxPoint x="-123.33" y="470" as="sourcePoint"/>
                        <mxPoint x="186.67000000000002" y="625" as="targetPoint"/>
                        <Array as="points">
                            <mxPoint x="156.67000000000002" y="490"/>
                            <mxPoint x="156.67000000000002" y="625"/>
                        </Array>
                    </mxGeometry>
                </mxCell>
                <mxCell id="146" value="Составить договор оказания услуг турагенства" style="rounded=0;whiteSpace=wrap;html=1;" parent="1" vertex="1">
                    <mxGeometry x="291.67" y="610" width="120" height="60" as="geometry"/>
                </mxCell>
                <mxCell id="147" value="" style="endArrow=classic;html=1;" parent="1" edge="1">
                    <mxGeometry width="50" height="50" relative="1" as="geometry">
                        <mxPoint x="186.67000000000002" y="660" as="sourcePoint"/>
                        <mxPoint x="296.67" y="660" as="targetPoint"/>
                        <Array as="points">
                            <mxPoint x="206.67000000000002" y="660"/>
                        </Array>
                    </mxGeometry>
                </mxCell>
                <mxCell id="148" value="Данные клиента" style="text;html=1;align=center;verticalAlign=middle;whiteSpace=wrap;rounded=0;" parent="1" vertex="1">
                    <mxGeometry x="86.67" y="650" width="100" height="20" as="geometry"/>
                </mxCell>
                <mxCell id="151" value="Выбранный&amp;nbsp;&amp;nbsp;тур" style="text;html=1;align=center;verticalAlign=middle;whiteSpace=wrap;rounded=0;" parent="1" vertex="1">
                    <mxGeometry x="116.67" y="450" width="60" height="30" as="geometry"/>
                </mxCell>
                <mxCell id="152" value="" style="endArrow=classic;html=1;" parent="1" edge="1">
                    <mxGeometry width="50" height="50" relative="1" as="geometry">
                        <mxPoint x="406.17" y="570" as="sourcePoint"/>
                        <mxPoint x="406.17" y="610" as="targetPoint"/>
                    </mxGeometry>
                </mxCell>
                <mxCell id="153" value="152-ФЗ" style="text;html=1;align=center;verticalAlign=middle;whiteSpace=wrap;rounded=0;" parent="1" vertex="1">
                    <mxGeometry x="379.17" y="540" width="60" height="30" as="geometry"/>
                </mxCell>
                <mxCell id="154" value="" style="endArrow=classic;html=1;" parent="1" edge="1">
                    <mxGeometry width="50" height="50" relative="1" as="geometry">
                        <mxPoint x="320.67" y="570" as="sourcePoint"/>
                        <mxPoint x="320.67" y="610" as="targetPoint"/>
                    </mxGeometry>
                </mxCell>
                <mxCell id="155" value="ст 779 - 783 ГК РФ&amp;nbsp;" style="text;html=1;align=center;verticalAlign=middle;whiteSpace=wrap;rounded=0;" parent="1" vertex="1">
                    <mxGeometry x="264.17" y="540" width="115" height="30" as="geometry"/>
                </mxCell>
                <mxCell id="156" value="" style="endArrow=classic;html=1;" parent="1" edge="1">
                    <mxGeometry width="50" height="50" relative="1" as="geometry">
                        <mxPoint x="356.17" y="720" as="sourcePoint"/>
                        <mxPoint x="356.17" y="670" as="targetPoint"/>
                    </mxGeometry>
                </mxCell>
                <mxCell id="157" value="Завершить сделку" style="rounded=0;whiteSpace=wrap;html=1;" parent="1" vertex="1">
                    <mxGeometry x="506.67" y="730" width="120" height="60" as="geometry"/>
                </mxCell>
                <mxCell id="158" value="" style="endArrow=classic;html=1;exitX=1;exitY=0.5;exitDx=0;exitDy=0;entryX=0;entryY=0.25;entryDx=0;entryDy=0;" parent="1" source="146" target="157" edge="1">
                    <mxGeometry width="50" height="50" relative="1" as="geometry">
                        <mxPoint x="436.67" y="710" as="sourcePoint"/>
                        <mxPoint x="486.67" y="660" as="targetPoint"/>
                        <Array as="points">
                            <mxPoint x="446.67" y="640"/>
                            <mxPoint x="446.67" y="745"/>
                        </Array>
                    </mxGeometry>
                </mxCell>
                <mxCell id="159" value="Составленный договр" style="text;html=1;align=center;verticalAlign=middle;whiteSpace=wrap;rounded=0;" parent="1" vertex="1">
                    <mxGeometry x="461.67" y="660" width="60" height="30" as="geometry"/>
                </mxCell>
                <mxCell id="160" value="" style="endArrow=classic;html=1;" parent="1" edge="1">
                    <mxGeometry width="50" height="50" relative="1" as="geometry">
                        <mxPoint x="516.17" y="860" as="sourcePoint"/>
                        <mxPoint x="516.17" y="790" as="targetPoint"/>
                    </mxGeometry>
                </mxCell>
                <mxCell id="161" value="Платежная система" style="text;html=1;align=center;verticalAlign=middle;whiteSpace=wrap;rounded=0;" parent="1" vertex="1">
                    <mxGeometry x="481.67" y="870" width="60" height="30" as="geometry"/>
                </mxCell>
                <mxCell id="166" value="Сотрудник отдела документации" style="text;html=1;align=center;verticalAlign=middle;whiteSpace=wrap;rounded=0;" parent="1" vertex="1">
                    <mxGeometry x="326.67" y="730" width="60" height="30" as="geometry"/>
                </mxCell>
                <mxCell id="167" value="" style="endArrow=classic;html=1;" parent="1" edge="1">
                    <mxGeometry width="50" height="50" relative="1" as="geometry">
                        <mxPoint x="596.67" y="670" as="sourcePoint"/>
                        <mxPoint x="596.67" y="730" as="targetPoint"/>
                    </mxGeometry>
                </mxCell>
                <mxCell id="168" value="ст. 160 ГК" style="text;html=1;align=center;verticalAlign=middle;whiteSpace=wrap;rounded=0;" parent="1" vertex="1">
                    <mxGeometry x="566.67" y="640" width="60" height="30" as="geometry"/>
                </mxCell>
                <mxCell id="169" value="" style="endArrow=classic;html=1;entryX=0.5;entryY=1;entryDx=0;entryDy=0;" parent="1" edge="1">
                    <mxGeometry width="50" height="50" relative="1" as="geometry">
                        <mxPoint x="576.67" y="860" as="sourcePoint"/>
                        <mxPoint x="576.17" y="790" as="targetPoint"/>
                    </mxGeometry>
                </mxCell>
                <mxCell id="170" value="База данных клиентов" style="text;html=1;align=center;verticalAlign=middle;whiteSpace=wrap;rounded=0;" parent="1" vertex="1">
                    <mxGeometry x="546.67" y="870" width="60" height="30" as="geometry"/>
                </mxCell>
                <mxCell id="173" value="" style="endArrow=classic;html=1;exitX=1;exitY=0.5;exitDx=0;exitDy=0;entryX=0.011;entryY=0.169;entryDx=0;entryDy=0;entryPerimeter=0;" parent="1" source="157" target="177" edge="1">
                    <mxGeometry width="50" height="50" relative="1" as="geometry">
                        <mxPoint x="656.67" y="770" as="sourcePoint"/>
                        <mxPoint x="726.67" y="760" as="targetPoint"/>
                        <Array as="points">
                            <mxPoint x="736.67" y="760"/>
                            <mxPoint x="736.67" y="910"/>
                        </Array>
                    </mxGeometry>
                </mxCell>
                <mxCell id="174" value="Турпакет" style="text;html=1;align=center;verticalAlign=middle;whiteSpace=wrap;rounded=0;" parent="1" vertex="1">
                    <mxGeometry x="646.67" y="730" width="60" height="30" as="geometry"/>
                </mxCell>
                <mxCell id="175" value="" style="endArrow=classic;html=1;" parent="1" edge="1">
                    <mxGeometry width="50" height="50" relative="1" as="geometry">
                        <mxPoint x="456.67" y="780" as="sourcePoint"/>
                        <mxPoint x="506.67" y="780" as="targetPoint"/>
                    </mxGeometry>
                </mxCell>
                <mxCell id="176" value="Бюджет клиента" style="text;html=1;align=center;verticalAlign=middle;whiteSpace=wrap;rounded=0;" parent="1" vertex="1">
                    <mxGeometry x="351.67" y="770" width="103" height="20" as="geometry"/>
                </mxCell>
                <mxCell id="177" value="Сопроводить клиента в поездке" style="rounded=0;whiteSpace=wrap;html=1;" parent="1" vertex="1">
                    <mxGeometry x="866.67" y="900" width="120" height="60" as="geometry"/>
                </mxCell>
                <mxCell id="181" value="" style="endArrow=classic;html=1;exitX=1;exitY=0.75;exitDx=0;exitDy=0;entryX=0;entryY=0.5;entryDx=0;entryDy=0;" parent="1" source="157" target="177" edge="1">
                    <mxGeometry width="50" height="50" relative="1" as="geometry">
                        <mxPoint x="706.67" y="870" as="sourcePoint"/>
                        <mxPoint x="846.67" y="930" as="targetPoint"/>
                        <Array as="points">
                            <mxPoint x="716.67" y="775"/>
                            <mxPoint x="716.67" y="930"/>
                        </Array>
                    </mxGeometry>
                </mxCell>
                <mxCell id="182" value="Информация о туре" style="text;html=1;align=center;verticalAlign=middle;whiteSpace=wrap;rounded=0;" parent="1" vertex="1">
                    <mxGeometry x="646.67" y="780" width="60" height="30" as="geometry"/>
                </mxCell>
                <mxCell id="183" value="" style="endArrow=classic;html=1;" parent="1" edge="1">
                    <mxGeometry width="50" height="50" relative="1" as="geometry">
                        <mxPoint x="927.5" y="870" as="sourcePoint"/>
                        <mxPoint x="927.5" y="900" as="targetPoint"/>
                    </mxGeometry>
                </mxCell>
                <mxCell id="184" value="Регламент обработки" style="text;html=1;align=center;verticalAlign=middle;whiteSpace=wrap;rounded=0;" parent="1" vertex="1">
                    <mxGeometry x="904.17" y="830" width="60" height="30" as="geometry"/>
                </mxCell>
                <mxCell id="185" value="" style="endArrow=classic;html=1;exitX=1;exitY=0.5;exitDx=0;exitDy=0;entryX=0;entryY=0.5;entryDx=0;entryDy=0;" parent="1" source="177" target="186" edge="1">
                    <mxGeometry width="50" height="50" relative="1" as="geometry">
                        <mxPoint x="1066.67" y="970" as="sourcePoint"/>
                        <mxPoint x="1036.67" y="930" as="targetPoint"/>
                        <Array as="points">
                            <mxPoint x="1036.67" y="930"/>
                            <mxPoint x="1036.67" y="1020"/>
                        </Array>
                    </mxGeometry>
                </mxCell>
                <mxCell id="186" value="Реализовать повторную продажу" style="rounded=0;whiteSpace=wrap;html=1;" parent="1" vertex="1">
                    <mxGeometry x="1116.67" y="990" width="120" height="60" as="geometry"/>
                </mxCell>
                <mxCell id="187" value="" style="endArrow=classic;html=1;" parent="1" edge="1">
                    <mxGeometry width="50" height="50" relative="1" as="geometry">
                        <mxPoint x="876.67" y="1000" as="sourcePoint"/>
                        <mxPoint x="876.67" y="960" as="targetPoint"/>
                    </mxGeometry>
                </mxCell>
                <mxCell id="188" value="Сотрудник отдела сопровождения" style="text;html=1;align=center;verticalAlign=middle;whiteSpace=wrap;rounded=0;" parent="1" vertex="1">
                    <mxGeometry x="846.67" y="1010" width="60" height="30" as="geometry"/>
                </mxCell>
                <mxCell id="189" value="Завершенная поездка" style="text;html=1;align=center;verticalAlign=middle;whiteSpace=wrap;rounded=0;" parent="1" vertex="1">
                    <mxGeometry x="1010" y="890" width="60" height="30" as="geometry"/>
                </mxCell>
                <mxCell id="190" value="" style="endArrow=classic;html=1;" parent="1" edge="1">
                    <mxGeometry width="50" height="50" relative="1" as="geometry">
                        <mxPoint x="1146.19" y="940" as="sourcePoint"/>
                        <mxPoint x="1146.19" y="990" as="targetPoint"/>
                    </mxGeometry>
                </mxCell>
                <mxCell id="191" value="Маркетинговая стратегия" style="text;html=1;align=center;verticalAlign=middle;whiteSpace=wrap;rounded=0;" parent="1" vertex="1">
                    <mxGeometry x="1086.67" y="900" width="120" height="30" as="geometry"/>
                </mxCell>
                <mxCell id="193" value="Сотрудник отдела продаж" style="text;html=1;align=center;verticalAlign=middle;whiteSpace=wrap;rounded=0;" parent="1" vertex="1">
                    <mxGeometry x="-59.99999999999993" y="1130" width="60" height="30" as="geometry"/>
                </mxCell>
                <mxCell id="194" value="" style="endArrow=classic;html=1;exitX=1;exitY=0.5;exitDx=0;exitDy=0;" parent="1" source="186" edge="1">
                    <mxGeometry width="50" height="50" relative="1" as="geometry">
                        <mxPoint x="1266.67" y="1040" as="sourcePoint"/>
                        <mxPoint x="1296.67" y="1020" as="targetPoint"/>
                    </mxGeometry>
                </mxCell>
                <mxCell id="195" value="Обратная связь" style="text;html=1;align=center;verticalAlign=middle;whiteSpace=wrap;rounded=0;" parent="1" vertex="1">
                    <mxGeometry x="1306.67" y="1005" width="60" height="30" as="geometry"/>
                </mxCell>
                <mxCell id="196" value="A1" style="text;html=1;align=center;verticalAlign=middle;whiteSpace=wrap;rounded=0;" parent="1" vertex="1">
                    <mxGeometry x="46.67" y="500" width="30" height="20" as="geometry"/>
                </mxCell>
                <mxCell id="197" value="A2" style="text;html=1;align=center;verticalAlign=middle;whiteSpace=wrap;rounded=0;" parent="1" vertex="1">
                    <mxGeometry x="381.67" y="650" width="30" height="20" as="geometry"/>
                </mxCell>
                <mxCell id="198" value="A3" style="text;html=1;align=center;verticalAlign=middle;whiteSpace=wrap;rounded=0;" parent="1" vertex="1">
                    <mxGeometry x="596.67" y="770" width="30" height="20" as="geometry"/>
                </mxCell>
                <mxCell id="200" value="А4" style="text;html=1;align=center;verticalAlign=middle;whiteSpace=wrap;rounded=0;" parent="1" vertex="1">
                    <mxGeometry x="951.67" y="940" width="30" height="20" as="geometry"/>
                </mxCell>
                <mxCell id="201" value="А5" style="text;html=1;align=center;verticalAlign=middle;whiteSpace=wrap;rounded=0;" parent="1" vertex="1">
                    <mxGeometry x="1206.67" y="1030" width="30" height="20" as="geometry"/>
                </mxCell>
                <mxCell id="202" value="" style="endArrow=none;html=1;" parent="1" edge="1">
                    <mxGeometry width="50" height="50" relative="1" as="geometry">
                        <mxPoint x="-290" y="340" as="sourcePoint"/>
                        <mxPoint x="1500" y="340" as="targetPoint"/>
                    </mxGeometry>
                </mxCell>
                <mxCell id="203" value="" style="endArrow=none;html=1;" parent="1" edge="1">
                    <mxGeometry width="50" height="50" relative="1" as="geometry">
                        <mxPoint x="-290" y="1230" as="sourcePoint"/>
                        <mxPoint x="-290" y="340" as="targetPoint"/>
                    </mxGeometry>
                </mxCell>
                <mxCell id="204" value="" style="endArrow=none;html=1;" parent="1" edge="1">
                    <mxGeometry width="50" height="50" relative="1" as="geometry">
                        <mxPoint x="1500" y="1230" as="sourcePoint"/>
                        <mxPoint x="1500" y="340" as="targetPoint"/>
                    </mxGeometry>
                </mxCell>
                <mxCell id="205" value="" style="endArrow=none;html=1;" parent="1" edge="1">
                    <mxGeometry width="50" height="50" relative="1" as="geometry">
                        <mxPoint x="-290" y="1190" as="sourcePoint"/>
                        <mxPoint x="1500" y="1190" as="targetPoint"/>
                    </mxGeometry>
                </mxCell>
                <mxCell id="206" value="" style="endArrow=none;html=1;" parent="1" edge="1">
                    <mxGeometry width="50" height="50" relative="1" as="geometry">
                        <mxPoint x="-290" y="1230" as="sourcePoint"/>
                        <mxPoint x="1500" y="1230" as="targetPoint"/>
                    </mxGeometry>
                </mxCell>
                <mxCell id="207" value="" style="endArrow=none;html=1;" parent="1" edge="1">
                    <mxGeometry width="50" height="50" relative="1" as="geometry">
                        <mxPoint x="-140" y="1230" as="sourcePoint"/>
                        <mxPoint x="-140" y="1190" as="targetPoint"/>
                    </mxGeometry>
                </mxCell>
                <mxCell id="208" value="&lt;font style=&quot;font-size: 22px;&quot;&gt;A0&lt;/font&gt;" style="text;html=1;align=center;verticalAlign=middle;whiteSpace=wrap;rounded=0;" parent="1" vertex="1">
                    <mxGeometry x="-270" y="1190" width="110" height="40" as="geometry"/>
                </mxCell>
                <mxCell id="321" value="" style="endArrow=classic;html=1;" edge="1" parent="1">
                    <mxGeometry width="50" height="50" relative="1" as="geometry">
                        <mxPoint x="1229.85" y="940" as="sourcePoint"/>
                        <mxPoint x="1229.52" y="990" as="targetPoint"/>
                    </mxGeometry>
                </mxCell>
                <mxCell id="322" value="Правила оценки обратной связи" style="text;html=1;align=center;verticalAlign=middle;whiteSpace=wrap;rounded=0;" vertex="1" parent="1">
                    <mxGeometry x="1200" y="890" width="60" height="30" as="geometry"/>
                </mxCell>
                <mxCell id="324" value="" style="endArrow=classic;html=1;entryX=0.148;entryY=1.012;entryDx=0;entryDy=0;entryPerimeter=0;" edge="1" parent="1">
                    <mxGeometry width="50" height="50" relative="1" as="geometry">
                        <mxPoint x="-30" y="1110" as="sourcePoint"/>
                        <mxPoint x="-29.999999999999936" y="520.0000000000002" as="targetPoint"/>
                    </mxGeometry>
                </mxCell>
                <mxCell id="325" value="" style="endArrow=classic;html=1;" edge="1" parent="1">
                    <mxGeometry width="50" height="50" relative="1" as="geometry">
                        <mxPoint x="-30" y="1100" as="sourcePoint"/>
                        <mxPoint x="1150" y="1050" as="targetPoint"/>
                        <Array as="points">
                            <mxPoint x="1150" y="1100"/>
                        </Array>
                    </mxGeometry>
                </mxCell>
                <mxCell id="326" value="" style="endArrow=classic;html=1;entryX=0.75;entryY=1;entryDx=0;entryDy=0;" edge="1" parent="1" target="198">
                    <mxGeometry width="50" height="50" relative="1" as="geometry">
                        <mxPoint x="40" y="1120" as="sourcePoint"/>
                        <mxPoint x="621.67" y="850" as="targetPoint"/>
                        <Array as="points">
                            <mxPoint x="619" y="1120"/>
                        </Array>
                    </mxGeometry>
                </mxCell>
                <mxCell id="327" value="" style="endArrow=classic;html=1;entryX=0.5;entryY=1;entryDx=0;entryDy=0;" edge="1" parent="1" target="200">
                    <mxGeometry width="50" height="50" relative="1" as="geometry">
                        <mxPoint x="40" y="1120" as="sourcePoint"/>
                        <mxPoint x="870" y="1110" as="targetPoint"/>
                        <Array as="points">
                            <mxPoint x="967" y="1120"/>
                        </Array>
                    </mxGeometry>
                </mxCell>
                <mxCell id="328" value="" style="endArrow=classic;html=1;entryX=0.5;entryY=1;entryDx=0;entryDy=0;" edge="1" parent="1" target="201">
                    <mxGeometry width="50" height="50" relative="1" as="geometry">
                        <mxPoint x="35" y="1120" as="sourcePoint"/>
                        <mxPoint x="1170" y="1120" as="targetPoint"/>
                        <Array as="points">
                            <mxPoint x="1222" y="1120"/>
                        </Array>
                    </mxGeometry>
                </mxCell>
            </root>
        </mxGraphModel>
    </diagram>
</mxfile>